<svg width="33" height="33" viewBox="0 0 33 33" fill="none" xmlns="http://www.w3.org/2000/svg">
<g clip-path="url(#clip0_34_4578)">
<path d="M16.198 -0.000366211C7.25217 -0.000366211 0 7.25148 0 16.1976C0 18.8152 0.626538 21.279 1.72849 23.4673C4.39371 28.7592 9.71249 32.394 16.198 32.3957C25.1438 32.3973 32.396 25.1438 32.396 16.1976C32.396 7.25148 25.1438 -0.000366211 16.198 -0.000366211ZM16.198 3.23924C17.7075 3.23924 19.4425 5.81309 20.3058 9.59857C18.9952 9.6828 17.6228 9.71844 16.198 9.71844C14.7672 9.71844 13.3946 9.66498 12.0823 9.57751C12.945 5.93296 14.6885 3.23924 16.198 3.23924ZM10.4717 4.57233C9.73322 5.93134 9.19059 7.65806 8.82208 9.28596C7.62376 9.12398 6.53898 8.8891 5.62622 8.65747C6.88237 6.93886 8.55287 5.48914 10.4717 4.57233ZM21.9475 4.56259C23.7076 5.47292 25.4825 6.91781 26.7666 8.68664C25.8548 8.91503 24.7399 9.11751 23.5479 9.27464C23.1794 7.64674 22.5588 5.83737 21.9475 4.56259ZM4.0887 11.5812C5.31716 11.9554 6.58449 12.234 8.28852 12.4624C8.14873 13.6951 8.09901 14.8775 8.09901 16.1976C8.09901 17.5178 8.16056 18.7213 8.30035 19.954C6.5636 20.1872 5.3042 20.414 4.05712 20.793C3.48484 19.3303 3.2396 17.8628 3.2396 16.1976C3.2396 14.5325 3.51643 13.0439 4.0887 11.5812ZM28.2929 11.5893C28.8652 13.052 29.1564 14.5325 29.1564 16.1976C29.1564 17.8628 28.8772 19.3352 28.3049 20.7979C27.0612 20.4188 25.8026 20.1645 24.0725 19.9329C24.2087 18.7132 24.297 17.5 24.297 16.1976C24.297 14.8775 24.2084 13.6724 24.0686 12.4381C25.7688 12.2032 27.0641 11.9619 28.2929 11.5893ZM11.5458 12.775C13.0472 12.8835 14.5599 12.958 16.198 12.958C17.8269 12.958 19.3657 12.8835 20.8601 12.7701C20.9968 13.9089 21.0574 14.9472 21.0574 16.1976C21.0574 17.4481 21.0138 18.4589 20.8773 19.596C19.3778 19.4858 17.8309 19.4372 16.198 19.4372C14.5609 19.4372 13.0284 19.4956 11.5229 19.6073C11.3825 18.4557 11.3386 17.4676 11.3386 16.1976C11.3386 14.9472 11.4091 13.9121 11.5458 12.775ZM16.198 22.6768C17.6207 22.6768 18.9849 22.7303 20.295 22.8145C19.3837 26.6065 17.714 29.1561 16.198 29.1561C14.6885 29.1561 12.9837 26.4834 12.0486 22.8113C13.3627 22.7238 14.765 22.6768 16.198 22.6768ZM8.82954 23.1272C9.19788 24.7551 9.83899 26.5417 10.4503 27.8181C8.65686 26.9661 6.93486 25.4985 5.62201 23.7394C6.55015 23.5046 7.60092 23.2908 8.82954 23.1272ZM23.5527 23.1239C24.7716 23.2827 25.8271 23.5127 26.7536 23.7443C25.5799 25.322 23.8568 26.8835 21.9635 27.7971C22.6541 26.3878 23.1842 24.7518 23.5527 23.1239Z" fill="#FF31A5"/>
</g>
<defs>
<clipPath id="clip0_34_4578">
<rect width="32.396" height="32.396" fill="white" transform="translate(0 -0.000366211)"/>
</clipPath>
</defs>
</svg>
