<svg width="33" height="30" viewBox="0 0 33 30" fill="none" xmlns="http://www.w3.org/2000/svg">
<g clip-path="url(#clip0_34_4575)">
<path d="M21.8673 -0.000366211C17.8416 -0.000366211 14.5782 3.26353 14.5782 7.28874C14.5782 11.3139 17.8416 14.5778 21.8673 14.5778C25.893 14.5778 29.1564 11.3139 29.1564 7.28874C29.1564 3.26353 25.893 -0.000366211 21.8673 -0.000366211ZM9.71881 1.61943C6.1405 1.61943 3.2396 4.5205 3.2396 8.09864C3.2396 11.6768 6.1405 14.5778 9.71881 14.5778C11.0623 14.5778 12.2886 14.2086 13.3679 13.4537C10.6 9.33945 10.9923 5.40005 12.5008 2.22686C11.6392 1.81867 10.693 1.61943 9.71881 1.61943ZM4.96064 16.7548C1.98976 17.981 0 20.9858 0 24.2966V27.5362C0 28.4304 0.725185 29.156 1.6198 29.156L8.34651 29.1593C7.96748 27.9283 8.07892 25.9326 8.10386 24.3177C8.15651 20.8886 9.57464 18.4426 10.1301 17.798C9.10928 17.7899 7.88422 17.5421 6.98539 17.1598C6.76834 17.0675 6.64232 16.9946 6.22619 16.8051C5.81816 16.6188 5.37499 16.5831 4.96064 16.7548ZM16.2992 16.7548C13.3284 17.981 11.3386 20.9858 11.3386 24.2966V27.5362C11.3386 28.4304 12.0638 29.156 12.9584 29.156H30.7762C31.6708 29.156 32.396 28.4304 32.396 27.5362V24.2966C32.396 21.0635 30.3952 18.1317 27.4354 16.8553C27.0188 16.6755 26.5333 16.6706 26.1193 16.8553C24.6861 17.4984 23.2898 17.8174 21.8673 17.8174C20.4497 17.8174 19.0485 17.4805 17.5648 16.8051C17.1568 16.6188 16.7136 16.5831 16.2992 16.7548Z" fill="#FF31A5"/>
</g>
<defs>
<clipPath id="clip0_34_4575">
<rect width="32.396" height="29.1597" fill="white" transform="translate(0 -0.000366211)"/>
</clipPath>
</defs>
</svg>
