<svg width="36" height="36" viewBox="0 0 36 36" fill="none" xmlns="http://www.w3.org/2000/svg">
<path d="M21.0029 6.00306C20.5655 6.00699 20.1284 6.10192 19.7227 6.29017L14.7188 8.60462C13.5037 9.16562 13.0036 10.6276 13.6201 11.8156C14.1631 12.8611 15.3989 13.3382 16.5059 12.9347L20.9912 11.2999L29.0889 19.1515C29.6724 19.7185 30 20.4962 30 21.3077V22.5001H31.5C32.328 22.5001 33 21.8281 33 21.0001V9.5802C33 8.55571 31.9959 7.83238 31.0254 8.15638L28.5 9.00013L22.2891 6.26673C21.8796 6.08673 21.4404 5.99912 21.0029 6.00306ZM4.5 7.50013C3.672 7.50013 3 8.17213 3 9.00013V22.5001H4.5L13.6143 30.4747C15.2388 31.8952 17.6874 31.8127 19.2129 30.2872L25.5703 23.9298C26.3593 23.1408 26.7522 22.1098 26.7627 21.0763L20.2529 14.7658L17.5312 15.756C16.9417 15.9705 16.3271 16.0783 15.7031 16.0783C13.7006 16.0783 11.881 14.9759 10.957 13.1984C10.2865 11.9084 10.1741 10.3786 10.6436 9.00306C10.8326 8.45256 11.1275 7.95613 11.4785 7.50013H4.5Z" fill="white"/>
</svg>
