<svg width="33" height="33" viewBox="0 0 33 33" fill="none" xmlns="http://www.w3.org/2000/svg">
<g clip-path="url(#clip0_34_4571)">
<path d="M16.198 0C7.25185 0 0 7.25185 0 16.198C0 25.1442 7.25185 32.396 16.198 32.396C25.1442 32.396 32.396 25.1442 32.396 16.198C32.396 7.25185 25.1442 0 16.198 0ZM16.198 3.2396C23.3543 3.2396 29.1564 9.04173 29.1564 16.198C29.1564 23.3543 23.3543 29.1564 16.198 29.1564C9.04173 29.1564 3.2396 23.3543 3.2396 16.198C3.2396 9.04173 9.04173 3.2396 16.198 3.2396ZM16.198 6.4792C10.83 6.4792 6.4792 10.83 6.4792 16.198C6.4792 21.566 10.83 25.9168 16.198 25.9168C21.566 25.9168 25.9168 21.566 25.9168 16.198C25.9168 10.83 21.566 6.4792 16.198 6.4792ZM16.198 9.71881C19.7761 9.71881 22.6772 12.6199 22.6772 16.198C22.6772 19.7761 19.7761 22.6772 16.198 22.6772C12.6199 22.6772 9.71881 19.7761 9.71881 16.198C9.71881 12.6199 12.6199 9.71881 16.198 9.71881ZM16.198 12.9584C14.4081 12.9584 12.9584 14.4081 12.9584 16.198C12.9584 17.9879 14.4081 19.4376 16.198 19.4376C17.9879 19.4376 19.4376 17.9879 19.4376 16.198C19.4376 14.4081 17.9879 12.9584 16.198 12.9584Z" fill="#FF31A5"/>
</g>
<defs>
<clipPath id="clip0_34_4571">
<rect width="32.396" height="32.396" fill="white"/>
</clipPath>
</defs>
</svg>
