<svg xmlns:xlink="http://www.w3.org/1999/xlink" width="24" height="25" viewBox="0 0 24 25" fill="none" xmlns="http://www.w3.org/2000/svg">
<path d="M12 16.4688C14.0711 16.4688 15.75 14.7898 15.75 12.7188C15.75 10.6477 14.0711 8.96875 12 8.96875C9.92893 8.96875 8.25 10.6477 8.25 12.7188C8.25 14.7898 9.92893 16.4688 12 16.4688Z" stroke="#FFFFFF" stroke-width="1.4px" stroke-miterlimit="10" fill="none"></path>
<path d="M16.125 4.09375H7.875C5.38972 4.09375 3.375 6.10847 3.375 8.59375V16.8438C3.375 19.329 5.38972 21.3438 7.875 21.3438H16.125C18.6103 21.3438 20.625 19.329 20.625 16.8438V8.59375C20.625 6.10847 18.6103 4.09375 16.125 4.09375Z" stroke="#FFFFFF" stroke-width="1.4px" stroke-linecap="round" stroke-linejoin="round" fill="none"></path>
<path d="M16.875 8.96875C17.4963 8.96875 18 8.46507 18 7.84375C18 7.22243 17.4963 6.71875 16.875 6.71875C16.2537 6.71875 15.75 7.22243 15.75 7.84375C15.75 8.46507 16.2537 8.96875 16.875 8.96875Z" fill="#FFFFFF"></path>
</svg>