<svg width="20" height="16" viewBox="0 0 20 16" fill="none" xmlns="http://www.w3.org/2000/svg">
<g clip-path="url(#clip0_48_828)">
<path d="M19.1552 2.61296C18.4695 2.90402 17.733 3.0999 16.9599 3.18824C17.7495 2.73624 18.3549 2.02057 18.6401 1.16724C17.9021 1.58568 17.0839 1.88976 16.2127 2.05412C15.5156 1.34393 14.5225 0.900146 13.4235 0.900146C11.3128 0.900146 9.60189 2.53626 9.60189 4.55315C9.60189 4.83942 9.63629 5.11884 9.70076 5.38524C6.5247 5.23321 3.70901 3.77858 1.82329 1.56788C1.49515 2.10754 1.30672 2.73486 1.30672 3.40533C1.30672 4.67231 1.9809 5.79067 3.00616 6.4454C2.37997 6.42622 1.79032 6.26185 1.27519 5.9886C1.27519 6.00435 1.27519 6.01873 1.27519 6.03449C1.27519 7.80482 2.59205 9.28137 4.34092 9.61626C4.02067 9.69981 3.6825 9.74433 3.33358 9.74433C3.08784 9.74433 2.84782 9.72104 2.61497 9.67927C3.10145 11.1304 4.51288 12.1872 6.18509 12.2166C4.87756 13.1967 3.2297 13.7808 1.43854 13.7808C1.13047 13.7808 0.82597 13.7637 0.526489 13.7295C2.21805 14.7656 4.22629 15.3704 6.38499 15.3704C13.4149 15.3704 17.258 9.80391 17.258 4.97639C17.258 4.81818 17.2544 4.66067 17.2473 4.50384C17.9945 3.98814 18.6429 3.34507 19.1552 2.61296Z" fill="white"/>
</g>
<defs>
<clipPath id="clip0_48_828">
<rect width="18.6287" height="14.4702" fill="white" transform="translate(0.526489 0.900146)"/>
</clipPath>
</defs>
</svg>
