<svg width="19" height="16" viewBox="0 0 19 16" fill="none" xmlns="http://www.w3.org/2000/svg">
<g clip-path="url(#clip0_32_3324)">
<path d="M19 2.61296C18.3143 2.90402 17.5779 3.09989 16.8048 3.18824C17.5943 2.73624 18.1998 2.02057 18.4849 1.16724C17.7469 1.58568 16.9287 1.88976 16.0575 2.05412C15.3604 1.34393 14.3674 0.900146 13.2683 0.900146C11.1576 0.900146 9.44674 2.53626 9.44674 4.55315C9.44674 4.83942 9.48113 5.11884 9.54561 5.38524C6.36954 5.23321 3.55386 3.77858 1.66813 1.56788C1.34 2.10754 1.15156 2.73486 1.15156 3.40533C1.15156 4.67231 1.82575 5.79067 2.85101 6.4454C2.22482 6.42622 1.63517 6.26185 1.12004 5.9886C1.12004 6.00435 1.12004 6.01873 1.12004 6.03449C1.12004 7.80482 2.43689 9.28137 4.18577 9.61626C3.86551 9.69981 3.52735 9.74433 3.17843 9.74433C2.93269 9.74433 2.69267 9.72104 2.45982 9.67927C2.9463 11.1304 4.35773 12.1872 6.02994 12.2166C4.72241 13.1967 3.07455 13.7808 1.28339 13.7808C0.975314 13.7808 0.670819 13.7637 0.371338 13.7295C2.0629 14.7656 4.07114 15.3704 6.22984 15.3704C13.2597 15.3704 17.1028 9.80391 17.1028 4.97639C17.1028 4.81818 17.0992 4.66067 17.0921 4.50384C17.8394 3.98814 18.4878 3.34507 19 2.61296Z" fill="#0E0E10"/>
</g>
<defs>
<clipPath id="clip0_32_3324">
<rect width="18.6287" height="14.4702" fill="white" transform="translate(0.371338 0.900146)"/>
</clipPath>
</defs>
</svg>
