<svg width="13" height="11" viewBox="0 0 13 11" fill="none" xmlns="http://www.w3.org/2000/svg">
<g clip-path="url(#clip0_34_767)">
<path d="M8.169 0.516746C7.7527 0.15382 7.12102 0.197086 6.75809 0.613383C6.39516 1.02968 6.43843 1.66137 6.85473 2.02429L9.43128 4.27052H1.1001C0.547813 4.27052 0.100098 4.71823 0.100098 5.27052C0.100098 5.8228 0.547813 6.27052 1.1001 6.27052H9.43128L6.85473 8.51675C6.43843 8.87967 6.39516 9.51136 6.75809 9.92765C7.12102 10.344 7.7527 10.3872 8.169 10.0243L12.7572 6.02429C12.9751 5.83438 13.1001 5.55952 13.1001 5.27052C13.1001 4.98152 12.9751 4.70666 12.7572 4.51675L8.169 0.516746Z" fill="black" stroke="black" stroke-width="0.5" stroke-linecap="round" stroke-linejoin="round"/>
</g>
<defs>
<clipPath id="clip0_34_767">
<rect width="12.5" height="9.50002" fill="white" transform="translate(0.350098 0.520508)"/>
</clipPath>
</defs>
</svg>
