<svg width="33" height="33" viewBox="0 0 33 33" fill="none" xmlns="http://www.w3.org/2000/svg">
<g clip-path="url(#clip0_34_4569)">
<path d="M16.198 0C15.3039 0 14.5782 0.725671 14.5782 1.6198V4.8594C14.5782 5.75353 15.3039 6.4792 16.198 6.4792C17.0921 6.4792 17.8178 5.75353 17.8178 4.8594V1.6198C17.8178 0.725671 17.0921 0 16.198 0ZM5.82155 4.20175C5.40688 4.20175 4.97278 4.34107 4.65692 4.65693C4.02358 5.29027 4.02358 6.30265 4.65692 6.93438L6.93437 9.26363C7.56771 9.89535 8.63028 9.89535 9.26362 9.26363C9.89535 8.63029 9.89535 7.56772 9.26362 6.93438L6.93437 4.65693C6.61851 4.34107 6.23622 4.20175 5.82155 4.20175ZM26.5744 4.20175C26.1598 4.20175 25.7775 4.34107 25.4616 4.65693L23.1324 6.93438C22.5006 7.56772 22.5006 8.63029 23.1324 9.26363C23.7657 9.89535 24.8283 9.89535 25.4616 9.26363L27.7391 6.93438C28.3724 6.30265 28.3724 5.29027 27.7391 4.65693C27.4232 4.34107 26.9891 4.20175 26.5744 4.20175ZM16.198 8.099C11.7257 8.099 8.099 11.7257 8.099 16.198C8.099 20.6703 11.7257 24.297 16.198 24.297C20.6703 24.297 24.297 20.6703 24.297 16.198C24.297 11.7257 20.6703 8.099 16.198 8.099ZM1.6198 14.5782C0.72567 14.5782 0 15.3039 0 16.198C0 17.0921 0.72567 17.8178 1.6198 17.8178H4.8594C5.75353 17.8178 6.4792 17.0921 6.4792 16.198C6.4792 15.3039 5.75353 14.5782 4.8594 14.5782H1.6198ZM27.5366 14.5782C26.6425 14.5782 25.9168 15.3039 25.9168 16.198C25.9168 17.0921 26.6425 17.8178 27.5366 17.8178H30.7762C31.6703 17.8178 32.396 17.0921 32.396 16.198C32.396 15.3039 31.6703 14.5782 30.7762 14.5782H27.5366ZM8.099 22.6772C7.68433 22.6772 7.25185 22.8165 6.93437 23.1324L4.65692 25.4616C4.02358 26.0934 4.02358 27.1074 4.65692 27.7391C5.29027 28.3724 6.30265 28.3724 6.93437 27.7391L9.26362 25.4616C9.89535 24.8283 9.89535 23.7657 9.26362 23.1324C8.94614 22.8165 8.51367 22.6772 8.099 22.6772ZM24.297 22.6772C23.8823 22.6772 23.4498 22.8165 23.1324 23.1324C22.5006 23.7657 22.5006 24.8283 23.1324 25.4616L25.4616 27.7391C26.0933 28.3724 27.1057 28.3724 27.7391 27.7391C28.3724 27.1057 28.3724 26.0934 27.7391 25.4616L25.4616 23.1324C25.1441 22.8165 24.7117 22.6772 24.297 22.6772ZM16.198 25.9168C15.3039 25.9168 14.5782 26.6425 14.5782 27.5366V30.7762C14.5782 31.6703 15.3039 32.396 16.198 32.396C17.0921 32.396 17.8178 31.6703 17.8178 30.7762V27.5366C17.8178 26.6425 17.0921 25.9168 16.198 25.9168Z" fill="#FF31A5"/>
</g>
<defs>
<clipPath id="clip0_34_4569">
<rect width="32.396" height="32.396" fill="white"/>
</clipPath>
</defs>
</svg>
