<svg width="24" height="24" viewBox="0 0 24 24" fill="none" xmlns="http://www.w3.org/2000/svg">
<path d="M17.802 8.56009C17.802 8.56009 15.856 14.6631 15.697 15.1671C15.207 11.3422 14.7123 7.51782 14.213 3.69409C10.897 3.69409 9.124 6.05409 8.187 8.54509L5.622 15.1821C5.607 14.7061 5.262 8.61709 5.262 8.61709C5.058 5.56509 2.262 3.70709 0 3.70709L2.739 20.3071C6.213 20.2921 8.086 17.9461 9.067 15.4551C9.067 15.4551 11.157 10.0571 11.243 9.81209C11.258 10.0421 12.743 20.3061 12.743 20.3061C16.231 20.3061 18.105 18.1041 19.113 15.7001L24 3.70809C20.555 3.70809 18.739 6.05409 17.802 8.55909V8.56009Z" fill="white"/>
</svg>
