<svg xmlns:xlink="http://www.w3.org/1999/xlink" width="24" height="25" viewBox="0 0 24 25" fill="none" xmlns="http://www.w3.org/2000/svg">
<path d="M15 12.7188L10.5 9.71875V15.7188L15 12.7188Z" stroke="#FFFFFF" stroke-width="1.4px" stroke-linecap="round" stroke-linejoin="round" fill="none"></path>
<path d="M2.25 12.7187C2.25 15.5083 2.5382 17.145 2.75729 17.9862C2.81585 18.216 2.92832 18.4284 3.08537 18.6061C3.24241 18.7837 3.43952 18.9213 3.66037 19.0076C6.79883 20.2136 12 20.1805 12 20.1805C12 20.1805 17.2011 20.2136 20.3396 19.0076C20.5604 18.9213 20.7576 18.7837 20.9146 18.6061C21.0717 18.4285 21.1841 18.216 21.2427 17.9862C21.4618 17.145 21.75 15.5083 21.75 12.7187C21.75 9.92914 21.4618 8.29243 21.2427 7.45123C21.1841 7.22148 21.0717 7.009 20.9146 6.83139C20.7576 6.65377 20.5605 6.51613 20.3396 6.42988C17.2012 5.22381 12 5.25693 12 5.25693C12 5.25693 6.79888 5.22381 3.66039 6.42987C3.43955 6.51612 3.24244 6.65376 3.08539 6.83137C2.92834 7.00899 2.81588 7.22147 2.75731 7.45121C2.53821 8.29241 2.25 9.92914 2.25 12.7187Z" stroke="#FFFFFF" stroke-width="1.4px" stroke-linecap="round" stroke-linejoin="round" fill="none"></path>
</svg>