<svg width="36" height="36" viewBox="0 0 36 36" fill="none" xmlns="http://www.w3.org/2000/svg">
<path d="M10.5 3C9.50544 3 8.55161 3.39509 7.84835 4.09835C7.14509 4.80161 6.75 5.75544 6.75 6.75C6.75 7.74456 7.14509 8.69839 7.84835 9.40165C8.55161 10.1049 9.50544 10.5 10.5 10.5C10.9925 10.5 11.4801 10.403 11.9351 10.2145C12.39 10.0261 12.8034 9.74987 13.1517 9.40165C13.4999 9.05343 13.7761 8.64003 13.9645 8.18506C14.153 7.73009 14.25 7.24246 14.25 6.75C14.25 5.75544 13.8549 4.80161 13.1517 4.09835C12.4484 3.39509 11.4946 3 10.5 3ZM25.5 3C24.5054 3 23.5516 3.39509 22.8484 4.09835C22.1451 4.80161 21.75 5.75544 21.75 6.75C21.75 7.74456 22.1451 8.69839 22.8484 9.40165C23.5516 10.1049 24.5054 10.5 25.5 10.5C25.9925 10.5 26.4801 10.403 26.9351 10.2145C27.39 10.0261 27.8034 9.74987 28.1516 9.40165C28.4999 9.05343 28.7761 8.64003 28.9645 8.18506C29.153 7.73009 29.25 7.24246 29.25 6.75C29.25 5.75544 28.8549 4.80161 28.1516 4.09835C27.4484 3.39509 26.4946 3 25.5 3ZM7.5 12C5.85 12 4.5 13.335 4.5 15V25.5H6V30C6 30.828 6.672 31.5 7.5 31.5C8.328 31.5 9 30.828 9 30V25.5H12V30C12 30.828 12.672 31.5 13.5 31.5C14.328 31.5 15 30.828 15 30V25.5H16.5V15C16.5 13.335 15.15 12 13.5 12H7.5ZM23.625 12C22.305 12 21.1201 12.8988 20.7451 14.1738L17.5049 25.5H21V30C21 30.828 21.672 31.5 22.5 31.5C23.328 31.5 24 30.828 24 30V25.5H27V30C27 30.828 27.672 31.5 28.5 31.5C29.328 31.5 30 30.828 30 30V25.5H33.4951L30.2549 14.1738C29.8799 12.8988 28.695 12 27.375 12H23.625Z" fill="white"/>
</svg>
